[2026-03-03T20:33:06.958Z] Pipeline started.
[2026-03-03T20:33:07.692Z] Downloading YouTube: https://youtube.com/shorts/sbqu-Bw61Rs?si=Nn4xez_KJv-rjCSm
[2026-03-03T20:33:24.807Z] ElevenLabs TTS seg 0 [21m00Tcm4TlvDq8ikWAM]: "Yaşam tarzını değiştirebilir misin?"
[2026-03-03T20:33:26.394Z] Seg 0 done (35988 bytes) ✅
[2026-03-03T20:33:26.633Z] ElevenLabs TTS seg 1 [21m00Tcm4TlvDq8ikWAM]: "Gerçekten pahalı giysiler aldığın görünmüyor."
[2026-03-03T20:33:27.807Z] Seg 1 done (44347 bytes) ✅
[2026-03-03T20:33:28.028Z] ElevenLabs TTS seg 2 [21m00Tcm4TlvDq8ikWAM]: "Hayır, gerçekten pahalı giysiler almıyorum."
[2026-03-03T20:33:29.182Z] Seg 2 done (41004 bytes) ✅
[2026-03-03T20:33:29.415Z] ElevenLabs TTS seg 3 [21m00Tcm4TlvDq8ikWAM]: "Şeyler alıyor musun? Almaya değer şeyleri alıyor m"
[2026-03-03T20:33:30.668Z] Seg 3 done (56050 bytes) ✅
[2026-03-03T20:33:30.914Z] ElevenLabs TTS seg 4 [21m00Tcm4TlvDq8ikWAM]: "Hayır, zemininde bir yatak olan küçük, tek yataklı"
[2026-03-03T20:33:32.236Z] Seg 4 done (68589 bytes) ✅
[2026-03-03T20:33:32.498Z] ElevenLabs TTS seg 5 [21m00Tcm4TlvDq8ikWAM]: "Orada yaşıyorum."
[2026-03-03T20:33:33.551Z] Seg 5 done (19688 bytes) ✅
[2026-03-03T20:33:33.820Z] Running FFmpeg: C:\Users\fullm\Downloads\dubverse-saas\backend\node_modules\ffmpeg-static\ffmpeg.exe -i C:\Users\fullm\Downloads\dubverse-saas\tmp\uploads\8faa6f7c-2fc7-44ea-8dcc-17088a7e27dc\audio.mp3 -i C:\Users\fullm\Downloads\dubverse-saas\tmp\uploads\8faa6f7c-2fc7-44ea-8dcc-17088a7e27dc\segments\seg_0.mp3 -i C:\Users\fullm\Downloads\dubverse-saas\tmp\uploads\8faa6f7c-2fc7-44ea-8dcc-17088a7e27dc\segments\seg_1.mp3 -i C:\Users\fullm\Downloads\dubverse-saas\tmp\uploads\8faa6f7c-2fc7-44ea-8dcc-17088a7e27dc\segments\seg_2.mp3 -i C:\Users\fullm\Downloads\dubverse-saas\tmp\uploads\8faa6f7c-2fc7-44ea-8dcc-17088a7e27dc\segments\seg_3.mp3 -i C:\Users\fullm\Downloads\dubverse-saas\tmp\uploads\8faa6f7c-2fc7-44ea-8dcc-17088a7e27dc\segments\seg_4.mp3 -i C:\Users\fullm\Downloads\dubverse-saas\tmp\uploads\8faa6f7c-2fc7-44ea-8dcc-17088a7e27dc\segments\seg_5.mp3 -filter_complex [1:a]aformat=sample_rates=44100:channel_layouts=stereo,adelay=0|0[s0];[2:a]aformat=sample_rates=44100:channel_layouts=stereo,adelay=1200|1200[s1];[3:a]aformat=sample_rates=44100:channel_layouts=stereo,adelay=4000|4000[s2];[4:a]aformat=sample_rates=44100:channel_layouts=stereo,adelay=6200|6200[s3];[5:a]aformat=sample_rates=44100:channel_layouts=stereo,adelay=9000|9000[s4];[6:a]aformat=sample_rates=44100:channel_layouts=stereo,adelay=13700|13700[s5];[0:a]aformat=sample_rates=44100:channel_layouts=stereo,volume=0[bg];[bg][s0][s1][s2][s3][s4][s5]amix=inputs=7:duration=first:dropout_transition=2,volume=7[mixed];[mixed]loudnorm=I=-23:TP=-1.5:LRA=11[out] -map [out] -acodec libmp3lame -ar 44100 -b:a 192k -y C:\Users\fullm\Downloads\dubverse-saas\tmp\uploads\8faa6f7c-2fc7-44ea-8dcc-17088a7e27dc\dubbed_audio.mp3
[2026-03-03T20:33:34.141Z] FFmpeg Err: Input #0, mp3, from 'C:\Users\fullm\Downloads\dubverse-saas\tmp\uploads\8faa6f7c-2fc7-44ea-8dcc-17088a7e27dc\audio.mp3':
  Metadata:
    major_brand     : mp42
    minor_version   : 0
    compatible_brands: isommp42
    encoder         : Lavf60.16.100
  Duration: 00:00:15.33, start: 0.025057, bitrate: 128 kb/s

[2026-03-03T20:33:34.145Z] FFmpeg Err:   Stream #0:0: Audio: mp3, 44100 Hz, stereo, fltp, 128 kb/s
    Metadata:
      encoder         : Lavc60.31
Input #1, mp3, from 'C:\Users\fullm\Downloads\dubverse-saas\tmp\uploads\8faa6f7c-2fc7-44ea-8dcc-17088a7e27dc\segments\seg_0.mp3':
  Metadata:
    encoder         : Lavf60.16.100
  Duration: 00:00:02.22, start: 0.025057, bitrate: 64 kb/s
  Stream #1:0: Audio: mp3, 44100 Hz, mono, fltp, 64 kb/s
Input #2, mp3, from 'C:\Users\fullm\Downloads\dubverse-saas\tmp\uploads\8faa6f7c-2fc7-44ea-8dcc-17088a7e27dc\segments\seg_1.mp3':
  Metadata:
    encoder         : Lavf60.16.100
  Duration: 00:00:02.74, start: 0.025057, bitrate: 64 kb/s
  Stream #2:0: Audio: mp3, 44100 Hz, mono, fltp, 64 kb/s
Input #3, mp3, from 'C:\Users\fullm\Downloads\dubverse-saas\tmp\uploads\8faa6f7c-2fc7-44ea-8dcc-17088a7e27dc\segments\seg_2.mp3':
  Metadata:
    encoder         : Lavf60.16.100
  Duration: 00:00:02.53, start: 0.025057, bitrate: 64 kb/s
  Stream #3:0: Audio: mp3, 44100 Hz, mono, fltp, 64 kb/s

[2026-03-03T20:33:34.152Z] FFmpeg Err: Input #4, mp3, from 'C:\Users\fullm\Downloads\dubverse-saas\tmp\uploads\8faa6f7c-2fc7-44ea-8dcc-17088a7e27dc\segments\seg_3.mp3':
  Metadata:
    encoder         : Lavf60.16.100
  Duration: 00:00:03.47, start: 0.025057, bitrate: 64 kb/s
  Stream #4:0: Audio: mp3, 44100 Hz, mono, fltp, 64 kb/s
Input #5, mp3, from 'C:\Users\fullm\Downloads\dubverse-saas\tmp\uploads\8faa6f7c-2fc7-44ea-8dcc-17088a7e27dc\segments\seg_4.mp3':
  Metadata:
    encoder         : Lavf60.16.100
  Duration: 00:00:04.26, start: 0.025057, bitrate: 64 kb/s
  Stream #5:0: Audio: mp3, 44100 Hz, mono, fltp, 64 kb/s
Input #6, mp3, from 'C:\Users\fullm\Downloads\dubverse-saas\tmp\uploads\8faa6f7c-2fc7-44ea-8dcc-17088a7e27dc\segments\seg_5.mp3':
  Metadata:
    encoder         : Lavf60.16.100
  Duration: 00:00:01.20, start: 0.025057, bitrate: 65 kb/s
  Stream #6:0: Audio: mp3, 44100 Hz, mono, fltp, 64 kb/s

[2026-03-03T20:33:34.161Z] FFmpeg Err: Stream mapping:
  Stream #0:0 (mp3float) -> aformat:default
  Stream #1:0 (mp3float) -> aformat:default
  Stream #2:0 (mp3float) -> aformat:default
  Stream #3:0 (mp3float) -> aformat:default
  Stream #4:0 (mp3float) -> aformat:default
  Stream #5:0 (mp3float) -> aformat:default
  Stream #6:0 (mp3float) -> aformat:default
  loudnorm:default -> Stream #0:0 (libmp3lame)

[2026-03-03T20:33:34.347Z] FFmpeg Err: Output #0, mp3, to 'C:\Users\fullm\Downloads\dubverse-saas\tmp\uploads\8faa6f7c-2fc7-44ea-8dcc-17088a7e27dc\dubbed_audio.mp3':
  Metadata:
    major_brand     : mp42
    minor_version   : 0
    compatible_brands: isommp42
    TSSE            : Lavf60.16.100
  Stream #0:0: Audio: mp3, 44100 Hz, stereo, fltp, 192 kb/s
    Metadata:
      encoder         : Lavc60.31.102 libmp3lame

[2026-03-03T20:33:34.352Z] FFmpeg Err: size=       0kB time=-00:00:00.02 bitrate=  -0.0kbits/s speed=N/A    
[2026-03-03T20:33:34.807Z] FFmpeg Err: size=     135kB time=00:00:05.69 bitrate= 193.9kbits/s speed=8.67x    
[2026-03-03T20:33:35.336Z] FFmpeg Err: size=     256kB time=00:00:12.27 bitrate= 170.8kbits/s speed=10.4x    
[2026-03-03T20:33:35.408Z] FFmpeg Err: [out#0/mp3 @ 000001c565080380] video:0kB audio:359kB subtitle:0kB other streams:0kB global headers:0kB muxing overhead: 0.207601%
size=     360kB time=00:00:15.38 bitrate= 191.8kbits/s speed=12.2x    

[2026-03-03T20:33:37.714Z] Running FFmpeg: C:\Users\fullm\Downloads\dubverse-saas\backend\node_modules\ffmpeg-static\ffmpeg.exe -i C:\Users\fullm\Downloads\dubverse-saas\tmp\uploads\8faa6f7c-2fc7-44ea-8dcc-17088a7e27dc\video.mp4 -i C:\Users\fullm\Downloads\dubverse-saas\tmp\uploads\8faa6f7c-2fc7-44ea-8dcc-17088a7e27dc\dubbed_audio.mp3 -map 0:v:0 -map 1:a:0 -c:v copy -c:a aac -b:a 192k -shortest -y C:\Users\fullm\Downloads\dubverse-saas\tmp\uploads\8faa6f7c-2fc7-44ea-8dcc-17088a7e27dc\final_dubbed.mp4
[2026-03-03T20:33:37.811Z] FFmpeg Err: Input #0, mov,mp4,m4a,3gp,3g2,mj2, from 'C:\Users\fullm\Downloads\dubverse-saas\tmp\uploads\8faa6f7c-2fc7-44ea-8dcc-17088a7e27dc\video.mp4':
  Metadata:
    major_brand     : mp42
    minor_version   : 0
    compatible_brands: isommp42
    creation_time   : 2022-10-02T15:04:51.000000Z
  Duration: 00:00:15.30, start: 0.000000, bitrate: 410 kb/s
  Stream #0:0[0x1](und): Video: h264 (Main) (avc1 / 0x31637661), yuv420p(tv, bt709, progressive), 360x640 [SAR 1:1 DAR 9:16], 278 kb/s, 30 fps, 30 tbr, 15360 tbn
[2026-03-03T20:33:37.816Z] FFmpeg Err:  (default)
    Metadata:
      creation_time   : 2022-10-02T15:04:51.000000Z
      handler_name    : ISO Media file produced by Google Inc. Created on: 10/02/2022.
      vendor_id       : [0][0][0][0]
  Stream #0:1[0x2](eng): Audio: aac (LC) (mp4a / 0x6134706D), 44100 Hz, stereo, fltp, 127 kb/s (default)
    Metadata:
      creation_time   : 2022-10-02T15:04:51.000000Z
      handler_name    : ISO Media file produced by Google Inc. Created on: 10/02/2022.
      vendor_id       : [0][0][0][0]
Input #1, mp3, from 'C:\Users\fullm\Downloads\dubverse-saas\tmp\uploads\8faa6f7c-2fc7-44ea-8dcc-17088a7e27dc\dubbed_audio.mp3':
  Metadata:
    major_brand     : mp42
    minor_version   : 0
    compatible_brands: isommp42
    encoder         : Lavf60.16.100
  Duration: 00:00:15.33, start: 0.025057, bitrate: 192 kb/s
  Stream #1:0: Audio: mp3, 44100 Hz, stereo, fltp, 192 kb/s
    Metadata:
      encoder         : Lavc60.31

[2026-03-03T20:33:37.821Z] FFmpeg Err: Stream mapping:
  Stream #0:0 -> #0:0 (copy)
  Stream #1:0 -> #0:1 (mp3 (mp3float) -> aac (native))

[2026-03-03T20:33:37.833Z] FFmpeg Err: Output #0, mp4, to 'C:\Users\fullm\Downloads\dubverse-saas\tmp\uploads\8faa6f7c-2fc7-44ea-8dcc-17088a7e27dc\final_dubbed.mp4':
  Metadata:
    major_brand     : mp42
    minor_version   : 0
    compatible_brands: isommp42
    encoder         : Lavf60.16.100

[2026-03-03T20:33:37.841Z] FFmpeg Err:   Stream #0:0(und): Video: h264 (Main) (avc1 / 0x31637661), yuv420p(tv, bt709, progressive), 360x640 [SAR 1:1 DAR 9:16], q=2-31, 278 kb/s, 30 fps, 30 tbr, 15360 tbn (default)
    Metadata:
      creation_time   : 2022-10-02T15:04:51.000000Z
      handler_name    : ISO Media file produced by Google Inc. Created on: 10/02/2022.
      vendor_id       : [0][0][0][0]
  Stream #0:1: Audio: aac (LC) (mp4a / 0x6134706D), 44100 Hz, stereo, fltp, 192 kb/s
    Metadata:
      encoder         : Lavc60.31.102 aac
size=       0kB time=N/A bitrate=N/A speed=N/A    
[2026-03-03T20:33:38.318Z] FFmpeg Err: size=     256kB time=00:00:06.16 bitrate= 340.1kbits/s speed=12.3x    
[2026-03-03T20:33:38.819Z] FFmpeg Err: size=     512kB time=00:00:11.53 bitrate= 363.7kbits/s speed=11.5x    
[2026-03-03T20:33:39.198Z] FFmpeg Err: [out#0/mp4 @ 00000251ed06be00] video:520kB audio:344kB subtitle:0kB other streams:0kB global headers:0kB muxing overhead: 1.800393%
size=     880kB time=00:00:15.27 bitrate= 472.0kbits/s speed=11.1x    

[2026-03-03T20:33:39.204Z] FFmpeg Err: [aac @ 00000251ecece940] Qavg: 8097.617

[2026-03-03T20:33:42.376Z] ✅ Pipeline finished successfully!
